<svg xmlns="http://www.w3.org/2000/svg" width="92.93" height="92.93" viewBox="0 0 24.59 24.59"><g transform="translate(-37.42 -40.15)"><rect width="24.59" height="24.59" x="37.42" y="40.15" ry="6.95"/><g fill="#fff" stroke-width=".26" aria-label=":~$" font-family="Roboto" font-size="10.51" font-weight="400" letter-spacing="0" style="line-height:1.25" word-spacing="0"><path d="M42.85 55.71q0-.24.15-.4.15-.17.44-.17.29 0 .44.16.15.17.15.41 0 .24-.15.4-.15.16-.44.16-.3 0-.44-.16-.15-.16-.15-.4zm0-4.53q0-.24.15-.4.15-.17.44-.17.3 0 .44.16.16.17.16.41 0 .24-.16.4-.14.16-.44.16-.29 0-.44-.16-.14-.16-.14-.4zM51.2 52.22q0 .81-.49 1.37-.48.56-1.18.56-.37 0-.7-.13-.33-.14-.76-.52t-.62-.48q-.2-.09-.4-.09-.4 0-.62.28-.22.27-.22.75l-.83.01q0-.82.48-1.35.47-.52 1.18-.52.4 0 .75.16.36.16.81.58.45.41.78.46l.15.01q.4 0 .63-.3.25-.3.25-.78zM56.25 54.29q0-.47-.33-.8-.33-.32-1.12-.58-1.1-.34-1.6-.87-.5-.54-.5-1.37 0-.84.5-1.38.49-.54 1.35-.64v-1.12h.76v1.13q.86.11 1.34.72.48.6.48 1.66h-.94q0-.73-.35-1.15-.34-.43-.92-.43-.62 0-.94.32-.32.31-.32.88 0 .52.34.84.34.3 1.12.56.79.25 1.22.56.44.3.65.7.2.41.2.96 0 .86-.51 1.4-.52.52-1.46.62v.98h-.76v-.98q-.96-.09-1.5-.68-.54-.6-.54-1.61h.95q0 .71.37 1.1.38.38 1.07.38.67 0 1.05-.32.39-.32.39-.88z" style="-inkscape-font-specification:Roboto"/></g></g></svg>